<?xml version="1.0" standalone="no"?>
<!DOCTYPE svg PUBLIC "-//W3C//DTD SVG 20010904//EN"
 "http://www.w3.org/TR/2001/REC-SVG-20010904/DTD/svg10.dtd">
<svg version="1.0" xmlns="http://www.w3.org/2000/svg"
 width="1116.000000pt" height="1116.000000pt" viewBox="0 0 1116.000000 1116.000000"
 preserveAspectRatio="xMidYMid meet">

<g transform="translate(0.000000,1116.000000) scale(0.100000,-0.100000)"
fill="#000000" stroke="none">
<path d="M7735 8463 c-492 -34 -1006 -226 -1532 -575 -658 -435 -1317 -1121
-1968 -2047 -472 -672 -996 -1606 -1338 -2386 -81 -184 -457 -1098 -454 -1102
2 -1 41 80 87 180 519 1130 1395 2605 2221 3742 297 408 501 655 754 914 600
613 1169 987 1751 1150 476 133 940 117 1337 -44 415 -170 795 -449 1089 -800
131 -157 163 -215 154 -280 -13 -84 -77 -131 -167 -123 l-50 5 48 -35 c57 -41
96 -59 161 -73 65 -14 98 0 119 48 65 155 -217 567 -597 872 -382 307 -843
508 -1269 551 -97 9 -233 11 -346 3z"/>
<path d="M3300 8453 c-637 -48 -1345 -488 -1837 -1145 -254 -338 -393 -666
-393 -928 0 -87 24 -222 54 -304 161 -446 732 -630 1265 -410 198 82 377 225
436 347 38 80 44 143 15 179 -37 48 -151 69 -255 49 l-40 -8 30 -8 c111 -29
143 -105 89 -213 -50 -102 -239 -247 -396 -306 -109 -41 -212 -58 -363 -59
-155 -2 -213 9 -345 66 -215 93 -385 274 -435 462 -21 79 -21 265 0 373 37
192 121 384 262 597 123 185 231 315 412 496 496 494 907 706 1406 726 316 12
531 -68 666 -247 200 -266 115 -603 -476 -1885 -168 -365 -185 -403 -342 -765
-293 -675 -450 -1128 -567 -1630 -43 -187 -90 -464 -106 -620 -13 -125 -14
-591 -2 -680 4 -33 7 41 8 190 1 694 187 1409 621 2390 52 118 229 481 393
805 164 325 330 660 368 745 361 799 440 1246 267 1506 -103 156 -280 248
-525 274 -93 9 -120 10 -210 3z"/>
<path d="M7450 7452 c-127 -81 -447 -495 -662 -857 -153 -258 -336 -618 -497
-980 -51 -115 -100 -215 -107 -221 -8 -6 -47 -15 -87 -18 -219 -22 -685 -112
-1012 -196 -204 -52 -580 -165 -605 -182 -13 -8 -13 -9 2 -4 318 97 853 216
1178 260 190 27 482 57 489 50 2 -1 -37 -99 -87 -216 -218 -513 -355 -885
-423 -1148 -30 -116 -35 -128 -78 -173 -43 -45 -133 -107 -156 -107 -6 0 -18
35 -27 79 -10 48 -40 131 -78 212 -92 201 -119 270 -126 330 -6 51 -2 64 50
186 58 135 74 203 62 267 -9 49 -34 47 -81 -5 -83 -92 -131 -253 -120 -399 l7
-86 -67 -124 c-37 -69 -84 -152 -104 -185 -20 -33 -36 -70 -36 -82 0 -73 -323
-431 -443 -491 -77 -38 -134 -47 -193 -32 -101 27 -160 108 -167 230 -5 89
-21 71 138 160 331 186 540 362 630 531 80 151 18 263 -154 276 -246 20 -519
-204 -667 -547 -63 -147 -91 -266 -92 -395 -1 -175 44 -285 140 -342 40 -23
59 -28 113 -27 140 1 250 58 412 213 60 57 138 142 172 189 83 109 216 334
216 363 0 12 20 58 44 103 75 137 63 143 134 -76 54 -167 92 -317 92 -363 0
-8 -24 -21 -57 -30 -132 -38 -223 -108 -273 -208 -31 -62 -39 -122 -20 -157 5
-10 30 -26 55 -36 55 -21 125 -15 186 16 54 28 132 101 163 154 27 46 66 166
66 202 0 19 11 29 53 50 28 14 74 44 100 66 27 22 50 39 52 37 1 -2 -10 -69
-26 -149 -48 -240 -40 -369 25 -386 34 -8 100 24 172 84 55 46 212 223 288
325 16 21 31 35 33 33 3 -3 -2 -36 -11 -75 -34 -150 -14 -296 47 -336 67 -43
182 -19 313 66 145 94 344 320 400 455 8 20 17 35 19 33 2 -2 -13 -65 -32
-139 -27 -102 -36 -163 -40 -250 -5 -109 -4 -117 19 -150 45 -67 138 -49 252
48 120 104 265 283 420 518 95 146 113 181 101 192 -4 4 -10 1 -12 -5 -22 -62
-199 -318 -315 -458 -193 -231 -339 -260 -324 -65 3 36 23 139 45 230 76 315
162 538 241 624 49 53 74 58 88 19 10 -27 10 -27 11 10 2 95 -37 170 -88 170
-34 0 -60 -19 -101 -75 l-27 -37 -33 40 c-43 54 -82 69 -177 69 -58 0 -92 -6
-135 -24 -211 -87 -478 -393 -594 -682 -38 -92 -83 -158 -198 -289 -121 -137
-179 -184 -227 -185 -82 -1 -87 123 -14 416 97 394 333 1028 537 1440 46 95
53 104 84 110 18 3 266 4 551 1 418 -4 561 -9 738 -25 608 -57 943 -56 1241 3
355 71 637 234 841 485 22 28 13 22 -47 -26 -207 -168 -427 -282 -657 -340
-245 -62 -694 -74 -1313 -35 -584 37 -781 42 -1068 30 -145 -6 -266 -8 -269
-5 -7 6 133 308 265 571 307 615 606 1056 860 1266 103 86 140 98 160 57 20
-42 14 63 -7 107 -23 51 -41 66 -88 72 -30 3 -47 -2 -83 -25z m-2190 -2748 c0
-54 -28 -163 -60 -229 l-28 -60 -1 55 c-1 64 22 179 45 233 22 48 44 49 44 1z
m-565 -216 c32 -25 55 -74 55 -117 0 -51 -38 -154 -82 -221 -58 -90 -216 -244
-318 -311 -113 -74 -264 -153 -268 -140 -2 6 6 57 17 113 69 340 215 564 436
669 72 35 122 37 160 7z m2235 0 c78 -53 94 -163 45 -316 -40 -125 -128 -333
-181 -425 -64 -111 -116 -178 -214 -270 -104 -100 -186 -142 -262 -135 -43 5
-57 11 -84 41 -74 81 -71 200 11 437 77 220 170 380 297 510 155 160 299 218
388 158z m-1684 -932 c-22 -118 -56 -179 -112 -202 -46 -19 -78 -17 -99 6 -41
46 33 157 138 206 72 33 81 32 73 -10z"/>
</g>
</svg>
